<?xml version="1.0" encoding="utf-8"?>
<!-- Generator: Adobe Illustrator 26.0.0, SVG Export Plug-In . SVG Version: 6.00 Build 0)  -->
<svg version="1.1" id="Layer_1" xmlns="http://www.w3.org/2000/svg" xmlns:xlink="http://www.w3.org/1999/xlink" x="0px" y="0px"
	 viewBox="0 0 1210.6 298" enable-background="new 0 0 1210.6 298" xml:space="preserve">
<g>
	<path fill="#5B6770" d="M498.1,176h-105v-13.7h98.3c1.2,0,2.2-1,2.2-2.2v-23.3c0-1.2-1-2.2-2.2-2.2h-98.3V121h102.9
		c1.2,0,2.2-1,2.2-2.2V92.8c0-1.2-1-2.1-2.2-2.1H356.6c-1.2,0-2.2,1-2.2,2.1v112.4c0,1.2,1,2.2,2.2,2.2h141.6c1.2,0,2.2-1,2.2-2.2
		v-27C500.3,177,499.3,176,498.1,176"/>
	<path fill="#5B6770" d="M679.3,203.7c0,0-51-52.1-53.7-54.9c2.6-2.9,49.8-54.5,49.8-54.5c0.4-0.4,0.6-0.9,0.6-1.5l-0.2-0.9
		c-0.4-0.8-1.1-1.3-2-1.3h-44.5c-0.6,0-1.2,0.3-1.6,0.7c0,0-30.4,34.2-33.3,37.4c-2.9-3.3-33.3-37.4-33.3-37.4
		c-0.4-0.5-1-0.7-1.6-0.7h-44.5c-0.9,0-1.6,0.5-2,1.3l-0.2,0.9c0,0.5,0.2,1.1,0.6,1.5c0,0,47.2,51.7,49.8,54.5
		c-2.7,2.8-53.7,54.9-53.7,54.9c-0.4,0.4-0.6,1-0.6,1.5l0.2,0.8c0.3,0.8,1.1,1.3,2,1.3h46.2c0.6,0,1.2-0.3,1.6-0.7
		c0,0,32.6-35.8,35.5-39.1c2.9,3.2,35.5,39.1,35.5,39.1c0.4,0.4,1,0.7,1.6,0.7h46.3c0.9,0,1.6-0.5,2-1.3l0.2-0.8
		C679.9,204.6,679.7,204.1,679.3,203.7"/>
	<path fill="#5B6770" d="M727.5,122.9H791c10.5,0,12,4.7,12,9.8v4.3c0,6.5-3,9.8-9,9.8h-66.5V122.9z M799.9,90.7h-109
		c-1.2,0-2.2,1-2.2,2.1v112.4c0,1.2,1,2.2,2.2,2.2h34.5c1.2,0,2.2-1,2.2-2.2v-26.1h81.4c31.4,0,33.8-29.2,33.8-38.2v-9.6
		C842.7,113.9,838.3,90.7,799.9,90.7"/>
	<path fill="#5B6770" d="M891.6,122.9h66.8c11,0,13.7,1.9,13.7,9.6v3.7c0,7.1-2.8,9.6-10.6,9.6h-69.9V122.9z M1009.8,133.3v-7.1
		c0-24.6-11-35.5-35.8-35.5H854.9c-1.2,0-2.2,1-2.2,2.1v112.4c0,1.2,1,2.2,2.2,2.2h34.5c1.2,0,2.2-1,2.2-2.2v-27h67.1
		c9.4,0,12,2.9,12,13.5v13.5c0,1.2,1,2.2,2.2,2.2h34.5c1.2,0,2.2-1,2.2-2.2v-19.1c0-16-6.4-22.3-14-25.2
		C1007.2,155.9,1009.8,146.5,1009.8,133.3"/>
	<path fill="#5B6770" d="M1155.6,142.9v12.1c0,15.3-2.5,20.3-17.6,20.3h-59.2c-15,0-17.6-5.1-17.6-20.3v-12.1
		c0-13.5,3-20.3,19.4-20.3h55.4C1152.6,122.6,1155.6,129.5,1155.6,142.9 M1143.6,89.4h-70.3c-26.8,0-51.7,5.2-51.7,42.8v33.5
		c0,37.6,24.8,42.8,51.7,42.8h70.3c26.8,0,51.7-5.2,51.7-42.8v-33.5C1195.3,94.6,1170.4,89.4,1143.6,89.4"/>
	<path fill="#008EAA" d="M149,287c-76.1,0-138-61.9-138-138C11,72.9,72.9,11,149,11s138,61.9,138,138C287,225.1,225.1,287,149,287
		 M149,0C66.8,0,0,66.8,0,149s66.8,149,149,149s149-66.8,149-149S231.2,0,149,0"/>
	<path fill="#008EAA" d="M93,185.2c-3.3,0.5-20.7,5.1-20.7,5.1l-4.8-12.6c5.1,1.9,9.2,2.8,13.3,1.8c8.1-2,13.2-10.8,11.3-19.6
		c-1.9-8.8-10-14.3-18.1-12.2c-5,1.2-8.8,5-10.5,9.8l-9.4-16.3c0,0-2.9,0.1-3.3-3.5c-0.4-3.6,25.8-22.5,25.8-22.5L91.2,128
		l-4.3-16.2l-8.4,1.4l0.3-4L108,86.4c0,0,10.4,15.8,9.7,25.6c-1.3,17.8-14.2,22.2-13.4,29c0.8,6.9,8.6,13.8,3.7,30.7
		c-4.9,16.9-9.8,19.5-9.8,19.5S96.3,184.8,93,185.2 M52.1,172.4c-2.4-1.5-5.4-8.5-5.4-8.5s3.5,6.2,10.8,4.3
		c3.3-0.8,14.8-6.8,14.8-6.8s4-1.8,7.3,0.5c3.5,2.5,4.6,6,5,7.7c0,0-1.8-2.7-8.3-1.1c-3.1,0.8-19.2,4.9-19.2,4.9
		C57.5,173.3,54.6,174,52.1,172.4 M181.1,150.6c11.1,9.2,23.9,22.4,28.3,25c14.1,8.6,35.4,1.9,35.4,1.9s-26.1,24.2-42.6,28.1
		c-16.4,3.9-32.9,1-44.4-6.7c-11.3-7.5-18.8-17.1-18.8-17.1s5.8,19,15.4,26c14.5,10.7,35.3,6.2,35.3,6.2s-15.9,9.3-28.1,12.4
		c-5.7,1.4-16.6,3.9-26.9-0.2c-6.8-2.7-14.2-9.8-14.2-9.8s-2,3.5,4.9,10.7c7.3,7.7,18.3,9.4,18.3,9.4s-24.6,5.3-35-1.7
		c-4.2-2.8-19.1-11.2-6.5-37.9c2.7-5.7,11.3-13.1,12.2-29.6c0.8-14.7-2.9-18.1-3.5-23.1c-1-8.3,6.4-5.9,11.6-22.2
		c3-9.3,0.3-19.4-1.6-25.1c-2.1-6.2-7.7-15-7.7-15s-0.8-12.7,21.1-15.9c7.4-1.1,16.1,2,21.3,3.6c14.9,4.6,31.7,4.2,31.7,4.2
		s-25,2.5-30,11.8c-0.1,0.2,14-2.3,16.6-2.4c12.9-0.2,20.8,3.7,26.8,9.7c6.8,6.8,12.8,10.7,12.8,10.7s-16.1-4.4-24.4-3.7
		c-7.2,0.7-10,4.3-10,4.3s14.3,2.5,20,5c18.3,8.3,25.9,24.4,38.3,35.2c12.4,10.7,26.9,9,26.9,9s-12.1,13.5-21.3,15.4
		c-6.2,1.3-26.9,1-42.9-12c-27.5-22.3-41.2-17.6-41.2-17.6S171.1,142.3,181.1,150.6 M149,17C76.1,17,17,76.1,17,149
		s59.1,132,132,132c72.9,0,132-59.1,132-132S221.9,17,149,17"/>
</g>
<g>
	<path fill="#5B6770" d="M1201.4,93.7h1.8c0.9,0,2,0.2,2,1.4c0,1.4-1.1,1.5-2.3,1.5h-1.4V93.7z M1200,101.6h1.4v-3.8h1.5l2.4,3.8
		h1.5l-2.5-4c1.3-0.1,2.3-0.8,2.3-2.4c0-1.7-1-2.6-3.1-2.6h-3.4V101.6z M1196.7,97c0-3.7,2.7-6.5,6.3-6.5c3.5,0,6.3,2.8,6.3,6.5
		c0,3.7-2.7,6.6-6.3,6.6C1199.4,103.6,1196.7,100.8,1196.7,97 M1195.3,97c0,4.4,3.5,7.7,7.7,7.7c4.2,0,7.6-3.3,7.6-7.7
		c0-4.3-3.5-7.6-7.6-7.6C1198.8,89.4,1195.3,92.7,1195.3,97"/>
</g>
</svg>
