<?xml version="1.0" encoding="UTF-8"?>
<svg xmlns="http://www.w3.org/2000/svg" xmlns:xlink="http://www.w3.org/1999/xlink" version="1.1" id="Layer_1" x="0px" y="0px" width="250px" height="300px" viewBox="0 0 830 1000" style="enable-background:new 0 0 830 1000;" xml:space="preserve">
<style type="text/css">
	.st0{fill-rule:evenodd;clip-rule:evenodd;fill:url(#c_00000117654496858133893980000010871438354704495281_);}
	.st1{fill-rule:evenodd;clip-rule:evenodd;fill:url(#SVGID_1_);}
	.st2{fill-rule:evenodd;clip-rule:evenodd;fill:url(#SVGID_00000024002211301183146630000017551021544345430955_);}
	.st3{fill:#FFFFFF;}
	.st4{fill:url(#SVGID_00000122000335078612358880000016747348069687580068_);}
	.st5{fill:url(#SVGID_00000060003322886740028150000015545159211999591335_);}
	.st6{enable-background:new    ;}
</style>
<g id="a">
	
		<linearGradient id="c_00000026851640938965266020000007016642702351362948_" gradientUnits="userSpaceOnUse" x1="415" y1="924" x2="415" y2="890.9" gradientTransform="matrix(1 0 0 -1 0 924)">
		<stop offset="0" style="stop-color:#CBCBCB"></stop>
		<stop offset="1" style="stop-color:#0F0F0F"></stop>
	</linearGradient>
	<path id="c" style="fill-rule:evenodd;clip-rule:evenodd;fill:url(#c_00000026851640938965266020000007016642702351362948_);" d="   M830,970c0,16.6-13.6,30-30.2,30H30.2C13.6,1000,0,986.6,0,970V30C0,13.4,13.6,0,30.2,0h769.7C816.4,0,830,13.4,830,30V970z"></path>
	
		<linearGradient id="SVGID_1_" gradientUnits="userSpaceOnUse" x1="409.6985" y1="428.6981" x2="429.3985" y2="413.0981" gradientTransform="matrix(1 0 0 -1 0 924)">
		<stop offset="0" style="stop-color:#1C1C1C"></stop>
		<stop offset="1" style="stop-color:#BCBCBC"></stop>
	</linearGradient>
	<path class="st1" d="M823,966c0,13.8-11.2,25-25,25H32c-13.8,0-25-11.2-25-25V33C7,19.2,18.2,8,32,8h766c13.8,0,25,11.2,25,25V966z   "></path>
	
		<linearGradient id="SVGID_00000031888284007510916080000013215023542508182413_" gradientUnits="userSpaceOnUse" x1="700.7734" y1="766.3222" x2="52.0734" y2="-10.7778" gradientTransform="matrix(1 0 0 -1 0 924)">
		<stop offset="0" style="stop-color:#999999"></stop>
		<stop offset="1" style="stop-color:#000000"></stop>
	</linearGradient>
	<path style="fill-rule:evenodd;clip-rule:evenodd;fill:url(#SVGID_00000031888284007510916080000013215023542508182413_);" d="   M816.4,966.7c0,10.1-8.2,18.3-18.3,18.3H32c-10.1,0-18.3-8.2-18.3-18.3V33.3C13.6,23.2,21.8,15,32,15h766   c10.1,0,18.3,8.2,18.3,18.3v933.4H816.4L816.4,966.7z"></path>
</g>
<rect x="13.6" y="172.3" class="st3" width="802.7" height="16.7"></rect>
<linearGradient id="SVGID_00000122693041447972118320000006195927597341570986_" gradientUnits="userSpaceOnUse" x1="321.4719" y1="808.0281" x2="27.8719" y2="514.4281" gradientTransform="matrix(1 0 0 -1 0 1002)">
	<stop offset="0" style="stop-color:#62D5DE"></stop>
	<stop offset="1" style="stop-color:#07727B"></stop>
</linearGradient>
<path style="fill:url(#SVGID_00000122693041447972118320000006195927597341570986_);" d="M115.9,561.3c-14.3,0-26.8-11.8-26.8-27.5  V253.4h275.4c14.3,0,26.8,11.8,26.8,27.5s-11.5,27.5-26.8,27.5H142.6v226.2c0,14.8-11.5,26.6-26.8,26.6"></path>
<linearGradient id="SVGID_00000115480101955051128680000013805822674930437024_" gradientUnits="userSpaceOnUse" x1="801.9628" y1="327.5372" x2="508.3628" y2="33.9372" gradientTransform="matrix(1 0 0 -1 0 1002)">
	<stop offset="0" style="stop-color:#62D5DE"></stop>
	<stop offset="1" style="stop-color:#07727B"></stop>
</linearGradient>
<path style="fill:url(#SVGID_00000115480101955051128680000013805822674930437024_);" d="M457.3,916.4c-14.3,0-26.8-11.8-26.8-27.5  s11.5-27.5,26.8-27.5h222.8V635.2c0-14.8,11.5-27.5,26.8-27.5s26.8,11.8,26.8,27.5v280.3H457.3L457.3,916.4L457.3,916.4z"></path>
<path class="st3" d="M330.1,520c-15.3,0-26.8,5.9-35.4,15.7c-8.6,10.8-12.4,25.6-12.4,45.3s3.8,34.4,12.4,45.2s20.1,16.7,35.4,16.7  s27.7-5.9,35.4-16.7c8.6-10.8,12.4-25.6,12.4-45.2s-3.8-34.4-12.4-45.3C356.9,524.9,345.4,520,330.1,520"></path>
<path class="st3" d="M455.4,659.6c-12.4-10.8-19.1-25.6-20.1-44.3h35.4c1,9.8,4.8,16.7,11.5,21.6c5.7,4.9,15.3,6.9,27.7,6.9  c12.4,0,18.2-2,23-5.9c5.7-3.9,7.6-9.8,7.6-16.7c0-10.8-15.3-19.7-44.9-26.6h-1c-1,0-1.9,0-3.8-1c-16.3-3.9-27.7-7.9-34.4-11.8  c-5.7-3.9-10.5-9.8-14.3-16.7c-2.9-6.9-4.8-14.8-4.8-24.6c0-17.7,5.7-30.5,17.2-39.3s27.7-13.8,49.7-13.8s36.3,4.9,47.8,14.8  c11.5,9.8,17.2,23.6,18.2,41.3h-34.4c-1-8.8-3.8-14.8-9.6-19.7c-5.7-4.9-14.3-6.9-24.9-6.9s-16.3,2-22,5.9  c-4.8,3.9-7.6,8.9-7.6,15.7c0,9.8,9.6,16.7,29.6,21.6c5.7,1,9.6,2,12.4,2.9c12.4,3,22,5.9,26.8,7.9s9.6,3.9,13.4,5.9  c6.7,3.9,12.4,9.8,16.2,15.7c3.8,6.9,5.7,14.8,5.7,23.6c0,18.7-5.7,32.5-18.2,43.3c-12.4,9.8-29.6,15.7-51.6,15.7  s-39.2-4.9-50.7-15.7 M391.2,649.6c-15.3,16.7-36.3,25.6-62.2,25.6s-46.9-8.9-61.2-25.6c-15.3-16.7-22.9-39.3-22.9-68.8  s7.6-51.2,22.9-68.9c15.3-16.7,35.4-25.6,61.2-25.6s46.9,8.9,62.2,25.6c15.3,16.7,23,39.3,23,68.9S406.6,632.9,391.2,649.6   M618.8,348.6H206.7c-12.4,0-22,9.8-22,22.6v423.9c0,12.8,9.6,22.6,22,22.6h412.2c12.4,0,22-9.8,22-22.6V371.2  C640.9,359.4,631.3,348.6,618.8,348.6"></path>
<g class="st6">
	<path class="st3" d="M308.5,117.8h11.1c-1.1,4.4-3.4,7.8-6.8,10.3c-3.4,2.5-7.6,3.7-12.5,3.7c-6,0-10.8-2-14.3-6.1   c-3.5-4-5.3-9.5-5.3-16.4c0-6.8,1.7-12.2,5.2-16.1c3.5-3.9,8.2-5.9,14.2-5.9c6.4,0,11.3,1.9,14.8,5.8c3.5,3.9,5.2,9.4,5.2,16.5   c0,0.8,0,1.4,0,1.8c0,0.4,0,0.8-0.1,1.1h-27.8c0.2,3.3,1,5.7,2.4,7.4c1.4,1.7,3.5,2.5,6.2,2.5c1.9,0,3.5-0.4,4.7-1.1   C306.8,120.5,307.8,119.4,308.5,117.8z M292.3,105.2h16.4c-0.1-2.8-0.8-4.9-2.2-6.4c-1.4-1.5-3.4-2.2-6-2.2c-2.4,0-4.3,0.7-5.7,2.2   C293.3,100.3,292.5,102.4,292.3,105.2z"></path>
	<path class="st3" d="M327.5,130.4V88.8h10.6v4.6c1.6-1.9,3.3-3.4,5.2-4.3s4-1.5,6.4-1.5c2.6,0,4.9,0.5,6.7,1.5s3.5,2.5,4.9,4.7   c1.5-2,3.2-3.6,5.2-4.6c2-1,4.2-1.5,6.7-1.5c4.2,0,7.5,1.2,10,3.7c2.4,2.4,3.7,5.8,3.7,10v29.1h-11v-26.8c0-2-0.5-3.6-1.6-4.7   c-1.1-1.1-2.6-1.7-4.5-1.7c-2.2,0-3.9,0.7-5.2,2.1c-1.3,1.4-1.9,3.3-1.9,5.8v25.2h-10.9v-26.7c0-2-0.5-3.6-1.6-4.7   c-1.1-1.1-2.5-1.7-4.5-1.7c-2.2,0-3.9,0.7-5.1,2.1c-1.3,1.4-1.9,3.4-1.9,5.9v25.2H327.5z"></path>
	<path class="st3" d="M396.5,74h10.8V94c1.4-2.2,3.1-3.8,5.2-4.9c2.1-1.1,4.4-1.7,7.1-1.7c5,0,9.1,2.1,12.3,6.2   c3.2,4.1,4.8,9.5,4.8,16.2c0,6.6-1.6,11.9-4.8,16c-3.2,4.1-7.3,6.1-12.5,6.1c-2.7,0-5-0.6-7-1.7c-2-1.1-3.8-2.9-5.4-5.4v5.6h-10.6   V74z M425.7,109.3c0-3.8-0.8-6.8-2.4-9c-1.6-2.2-3.8-3.3-6.6-3.3c-3,0-5.3,1.1-6.9,3.2c-1.6,2.1-2.4,5.2-2.4,9.1   c0,4.2,0.8,7.5,2.3,9.6c1.5,2.2,3.8,3.3,6.8,3.3c3,0,5.3-1.1,6.9-3.3C424.9,116.7,425.7,113.5,425.7,109.3z"></path>
	<path class="st3" d="M442.8,102.3c0-9.1,2.5-16.3,7.4-21.7c5-5.3,11.7-8,20.1-8s15.1,2.7,20.1,8c5,5.4,7.5,12.6,7.5,21.7   c0,9.1-2.5,16.3-7.5,21.7c-5,5.4-11.7,8-20.1,8s-15.1-2.7-20.1-8C445.3,118.6,442.8,111.3,442.8,102.3z M454.7,102.3   c0,6.2,1.4,11,4.1,14.5c2.8,3.4,6.6,5.1,11.6,5.1c5,0,8.9-1.7,11.7-5.1c2.8-3.4,4.2-8.2,4.2-14.5s-1.4-11-4.2-14.5   c-2.8-3.4-6.7-5.1-11.7-5.1c-5,0-8.8,1.7-11.6,5.1C456,91.2,454.7,96,454.7,102.3z"></path>
	<path class="st3" d="M504.5,113H516c0.4,3.1,1.7,5.4,3.8,6.9c2.1,1.5,5.1,2.2,9.1,2.2c3.4,0,5.9-0.6,7.6-1.8c1.7-1.2,2.6-3,2.6-5.3   c0-3.4-4.9-6.3-14.7-8.5l-0.3-0.1c-0.3-0.1-0.7-0.1-1.2-0.3c-5.3-1.1-9-2.4-11.3-3.9c-2-1.3-3.5-3-4.6-5.1c-1-2.2-1.6-4.7-1.6-7.6   c0-5.5,1.9-9.7,5.6-12.6c3.7-2.9,9.1-4.4,16.2-4.4c6.6,0,11.7,1.6,15.4,4.7s5.7,7.5,5.9,13.2h-11.1c-0.2-2.7-1.3-4.8-3.1-6.2   c-1.9-1.4-4.6-2.1-8.1-2.1c-3,0-5.4,0.6-7,1.8c-1.6,1.2-2.5,2.9-2.5,5.1c0,3,3.2,5.2,9.6,6.7c1.7,0.4,3.1,0.7,4.1,1   c4.1,1,7,1.9,8.7,2.4c1.7,0.6,3.2,1.2,4.5,2c2.3,1.3,4,3,5.2,5.1s1.7,4.6,1.7,7.6c0,5.9-2,10.4-5.9,13.6c-4,3.2-9.5,4.8-16.7,4.8   c-7.1,0-12.7-1.6-16.7-4.9C507,123.7,504.9,119.1,504.5,113z"></path>
</g>
</svg>
